<?xml version="1.0" encoding="utf-8"?>
<!-- Generator: Adobe Illustrator 18.0.0, SVG Export Plug-In . SVG Version: 6.00 Build 0)  -->
<!DOCTYPE svg PUBLIC "-//W3C//DTD SVG 1.1//EN" "http://www.w3.org/Graphics/SVG/1.1/DTD/svg11.dtd">
<svg version="1.1" id="Layer_1" xmlns="http://www.w3.org/2000/svg" xmlns:xlink="http://www.w3.org/1999/xlink" x="0px" y="0px"
	 width="858.3px" height="658.3px" viewBox="0 0 858.3 658.3" style="enable-background:new 0 0 858.3 658.3;" xml:space="preserve"
	>
<style type="text/css">
	.st0{fill:#CDD3E1;}
	.st1{fill:#BFC6D6;}
	.st2{fill:#31336E;}
	.st3{fill:#6AA2F2;}
	.st4{fill:#D0D0D0;fill-opacity:1.000000e-02;stroke:#B5D0F8;stroke-width:2;}
	.st5{fill:#B5D0F8;}
	.st6{fill:#467CD4;}
	.st7{opacity:0.29;fill:#DFECFF;enable-background:new    ;}
	.st8{fill-rule:evenodd;clip-rule:evenodd;fill:#CDD3E1;}
	.st9{fill:#E8F1F8;}
	.st10{fill:#FFFFFF;}
	.st11{fill:#CFDDE7;}
	.st12{fill:#7E54F1;}
	.st13{fill:#202252;}
	.st14{fill:#FFFFFF;filter:url(#Adobe_OpacityMaskFilter);}
	.st15{mask:url(#mask97_2_);}
	.st16{fill:#FFFFFF;filter:url(#Adobe_OpacityMaskFilter_1_);}
	.st17{mask:url(#mask98_2_);}
	.st18{fill:#4A4C8E;}
	.st19{fill:#FFFFFF;filter:url(#Adobe_OpacityMaskFilter_2_);}
	.st20{mask:url(#mask99_2_);}
	.st21{fill:#A3C0EC;}
	.st22{fill:#FCBAC2;}
	.st23{fill:#373F6F;}
	.st24{fill:#F14677;}
	.st25{fill:#FFFFFF;filter:url(#Adobe_OpacityMaskFilter_3_);}
	.st26{mask:url(#mask100_2_);}
	.st27{fill:#E4396B;}
	.st28{fill:#FD6F8D;}
	.st29{fill:#FFFFFF;filter:url(#Adobe_OpacityMaskFilter_4_);}
	.st30{mask:url(#mask101_2_);}
	.st31{fill:#F594A1;}
	.st32{fill:#A75660;}
	.st33{fill:#E2B9AC;}
	.st34{fill:#FFFFFF;filter:url(#Adobe_OpacityMaskFilter_5_);}
	.st35{mask:url(#mask102_2_);}
	.st36{fill:#FFC915;}
	.st37{fill:#FFBF00;}
</style>
<g>
	<path class="st0" d="M157.8,564.4c0,3.9,3.2,7.1,7.1,7.1h112.6l14.3-136H172.1L157.8,564.4z M213.8,455c0-10.5,8.5-19,19-19
		c10.5,0,19,8.5,19,19c0,10.5-8.5,19-19,19C222.3,474,213.8,465.5,213.8,455z"/>
	<path class="st1" d="M170.6,449.8h44c0,0,0,0,0,0c-0.2,0.7-0.3,1.3-0.4,2c-0.1,0.3-0.1,0.6-0.1,0.9c0,0.2-0.1,0.4-0.1,0.7
		c0,0.5-0.1,1.1-0.1,1.7c0,10.5,8.5,19,19,19c10.5,0,19-8.5,19-19c0-0.6,0-1.1-0.1-1.7c0-0.2,0-0.4-0.1-0.7c0-0.3-0.1-0.6-0.1-0.9
		c-0.1-0.7-0.3-1.3-0.4-2c0,0,0,0,0,0l39.2,0l-0.6,5.7l-10.9,102H158.6L170.6,449.8z"/>
	<path class="st2" d="M447.8,150.5h-410c-11,0-20,9-20,20v264c0,11,9,20,20,20h410c11,0,20-9,20-20v-264
		C467.8,159.4,458.8,150.5,447.8,150.5z"/>
	<path class="st3" d="M447.8,158.5h-410c-6.6,0-12,5.4-12,12v264c0,6.6,5.4,12,12,12h410c6.6,0,12-5.4,12-12v-264
		C459.8,163.9,454.4,158.5,447.8,158.5z"/>
	<path class="st4" d="M437.8,200.5h-389c-1.7,0-3,1.3-3,3v123c0,1.7,1.3,3,3,3h389c1.7,0,3-1.3,3-3v-123
		C440.8,201.8,439.5,200.5,437.8,200.5z"/>
	<path class="st5" d="M48.8,199.5h389c2.2,0,4,1.8,4,4v62.8l-60.7,3.7v32.4h-62.3l-4.1,28.1H48.8c-2.2,0-4-1.8-4-4v-123
		C44.8,201.3,46.6,199.5,48.8,199.5z"/>
	<path class="st6" d="M437.8,178.5h-47c-2.2,0-4,1.8-4,4s1.8,4,4,4h47c2.2,0,4-1.8,4-4S440,178.5,437.8,178.5z"/>
	<path class="st5" d="M438.1,342.9H326.7c-2.2,0-4,1.8-4,4v50.4c0,2.2,1.8,4,4,4h111.4c2.2,0,4-1.8,4-4v-50.4
		C442.1,344.7,440.3,342.9,438.1,342.9z"/>
	<path class="st6" d="M337.8,411.4v1.5c0,1,0.8,1.9,1.9,1.9h100.2c1.1,0,1.9-0.8,1.9-1.9v-1.5c0-1-0.8-1.9-1.9-1.9H339.7
		C338.6,409.5,337.8,410.3,337.8,411.4z M370.3,423.1v1.5c0,1,0.8,1.9,1.9,1.9h67.7c1.1,0,1.9-0.8,1.9-1.9v-1.5c0-1-0.8-1.9-1.9-1.9
		h-67.7C371.1,421.2,370.3,422.1,370.3,423.1z"/>
	<path class="st5" d="M305.7,342.9H187.8c-2.2,0-4,1.8-4,4v50.4c0,2.2,1.8,4,4,4h117.9c2.3,0,4-1.8,4-4v-50.4
		C309.7,344.7,308,342.9,305.7,342.9z"/>
	<path class="st6" d="M205.8,411.4v1.5c0,1,0.8,1.9,1.9,1.9h100.2c1.1,0,1.9-0.8,1.9-1.9v-1.5c0-1-0.8-1.9-1.9-1.9H207.7
		C206.6,409.5,205.8,410.3,205.8,411.4z M238.3,423.1v1.5c0,1,0.9,1.9,1.9,1.9h67.7c1.1,0,1.9-0.8,1.9-1.9v-1.5c0-1-0.8-1.9-1.9-1.9
		h-67.7C239.2,421.2,238.3,422.1,238.3,423.1z"/>
	<path class="st5" d="M166.7,342.9H48.8c-2.2,0-4,1.8-4,4v50.4c0,2.2,1.8,4,4,4h117.9c2.3,0,4-1.8,4-4v-50.4
		C170.7,344.7,169,342.9,166.7,342.9z"/>
	<path class="st6" d="M66.8,411.4v1.5c0,1,0.8,1.9,1.9,1.9h100.2c1.1,0,1.9-0.8,1.9-1.9v-1.5c0-1-0.8-1.9-1.9-1.9H68.7
		C67.6,409.5,66.8,410.3,66.8,411.4z M99.3,423.1v1.5c0,1,0.9,1.9,1.9,1.9h67.7c1.1,0,1.9-0.8,1.9-1.9v-1.5c0-1-0.8-1.9-1.9-1.9
		h-67.7C100.2,421.2,99.3,422.1,99.3,423.1z"/>
	<path class="st6" d="M252.9,182.5c0,2.2,1.8,4,4,4h34.9c2.2,0,4-1.8,4-4s-1.8-4-4-4h-34.9C254.7,178.5,252.9,180.3,252.9,182.5z
		 M243.8,182.5c0,2.2-1.8,4-4,4h-34.9c-2.2,0-4-1.8-4-4s1.8-4,4-4h34.9C242,178.5,243.8,180.3,243.8,182.5z M148.9,182.5
		c0,2.2,1.8,4,4,4h34.9c2.2,0,4-1.8,4-4s-1.8-4-4-4h-34.9C150.7,178.5,148.9,180.3,148.9,182.5z M139.7,182.5c0,2.2-1.8,4-4,4h-34.9
		c-2.2,0-4-1.8-4-4s1.8-4,4-4h34.9C137.9,178.5,139.7,180.3,139.7,182.5z M87.7,182.5c0,2.2-1.8,4-4,4H48.8c-2.2,0-4-1.8-4-4
		s1.8-4,4-4h34.9C85.9,178.5,87.7,180.3,87.7,182.5z"/>
	<path class="st7" d="M131.4,454.5H37.8c-11,0-20-9-20-20v-264c0-11,9-20,20-20h221.8l27.2,1L131.4,454.5z"/>
	<path class="st8" d="M350.8,564.5c0,3.9-3.1,7-7,7h-143c-3.9,0-7-3.1-7-7c0-3.9,3.1-7,7-7h143C347.6,557.5,350.8,560.6,350.8,564.5
		z"/>
</g>
<g>
	<path class="st9" d="M634.9,312.8c-17.1-28.2,70.3-19,58.9-75.6c-18.1-89.4-186.8-82.8-191.7-35.1c-3.7,36.3,32.8,52.3,37.9,72.9
		c3.6,15.2-47.2,32.3-54.6,59.9c-27.7,103.7,194.1,142.4,199.9,66.9C689,351.2,647.7,333.9,634.9,312.8z"/>
	<g>
		<path class="st9" d="M762.2,207.1h3h2h66.5c0.2,0,0.5,0.1,0.7,0.1c0.2,0,0.5,0,0.7-0.1h4.8v102.7h-3h-2h-67.7h-2h-3V207.1
			 M760.2,203.1c-1.1,0-2,0.9-2,2v106.7c0,1.1,0.9,2,2,2h5h2h67.7h2h5c1.1,0,2-0.9,2-2V205.1c0-1.1-0.9-2-2-2h-7
			c-0.2,0-0.3,0-0.5,0.1c-0.2,0-0.3-0.1-0.5-0.1h-66.7h-2H760.2L760.2,203.1z"/>
		<path class="st9" d="M764.2,209.1h73.7v98.7h-73.7V209.1 M763.2,208.1v100.7h75.7V208.1H763.2L763.2,208.1z"/>
	</g>
	<g>
		<path class="st10" d="M683.9,581l-7-39c-3.4-1.8-5.8-5.4-5.8-9.6v-17.2c0-3.8,1.9-7.1,4.9-9c-3-1.9-4.9-5.3-4.9-9V377.9
			c0-6,4.9-10.9,10.8-10.9h151c6,0,10.8,4.9,10.8,10.9v119.4c0,3.8-1.9,7.1-4.9,9c3,1.9,4.9,5.3,4.9,9v17.2c0,4.5-2.8,8.4-6.8,10.1
			l-6.9,38.5c-0.3,1.7-1.8,3-3.5,3h-5.4c-1.7,0-3.3-1.3-3.5-3l-1.5-8.3l-0.4,2.8c-0.3,1.8-1.8,3.1-3.6,3.1h-5.4
			c-1.8,0-3.3-1.3-3.6-3.1l-4.9-32.2h-81.6l-4.9,32.2c-0.3,1.8-1.8,3.1-3.6,3.1h-5.4c-1.8,0-3.3-1.3-3.6-3.1l-0.8-5.5l-2,11
			c-0.3,1.7-1.8,3-3.5,3h-5.4C685.7,584,684.2,582.7,683.9,581z M698.6,544.3c1.8,0,3.3,1.3,3.5,3.1l3.3,21.5l4.5-29.7
			c0.3-1.8,1.8-3.1,3.6-3.1h87.7c1.8,0,3.3,1.3,3.6,3.1l4.5,29.7l2.9-18.8c0.3-1.7,1.7-3,3.5-3.1c1.7,0,3.3,1.2,3.6,3l4.4,25l6-33.4
			c-0.4-0.5-0.5-1.2-0.5-1.9c0-2,1.6-3.6,3.6-3.6c2,0,3.6-1.6,3.6-3.6v-17.2c0-2-1.6-3.6-3.6-3.6H682c-2,0-3.6,1.6-3.6,3.6v17.2
			c0,2,1.6,3.6,3.6,3.6c2,0,3.6,1.6,3.6,3.6c0,1.1-0.5,2.1-1.3,2.7l5.8,32.5l5-27.7C695.4,545.5,696.9,544.3,698.6,544.3
			L698.6,544.3z M682,374.2c-2,0-3.6,1.6-3.6,3.6v119.4c0,2,1.6,3.6,3.6,3.6h151c2,0,3.6-1.6,3.6-3.6V377.9c0-2-1.6-3.6-3.6-3.6H682
			z"/>
		<path class="st9" d="M833,370.6H682c-4,0-7.2,3.2-7.2,7.2v119.4c0,4,3.3,7.2,7.2,7.2h151c4,0,7.2-3.2,7.2-7.2V377.9
			C840.2,373.9,837,370.6,833,370.6z"/>
		<path class="st9" d="M833,508H682c-4,0-7.2,3.2-7.2,7.2v17.2c0,4,3.3,7.2,7.2,7.2h151c4,0,7.2-3.2,7.2-7.2v-17.2
			C840.2,511.3,837,508,833,508z"/>
		<path class="st11" d="M806.8,575h5.4l5.4-35.3h-16.3L806.8,575z M702.8,575h5.4l5.4-35.3h-16.3L702.8,575z"/>
		<path class="st9" d="M833.9,539.7H814l7.2,40.7h5.4L833.9,539.7z"/>
		<path class="st9" d="M700.1,539.7h-19.9l7.2,40.7h5.4L700.1,539.7z"/>
	</g>
	<g>
		<path class="st12" d="M550.8,590.7c-5.5,2.4-25.3,18.8-20.8,19.5c4.6,0.7,26.9-13.1,26-15.6C555.1,592.1,556.3,588.3,550.8,590.7z
			"/>
		<path class="st13" d="M557.3,316c-8.3,37.5-9.5,273.3-7.8,276c1.6,2.7,5.2,1.3,5.2,1.3s44-236.2,58.4-273.4
			C615.1,314.7,558.2,311.9,557.3,316z"/>
		<defs>
			<filter id="Adobe_OpacityMaskFilter" filterUnits="userSpaceOnUse" x="549.6" y="324.9" width="41.1" height="296.1">
				<feColorMatrix  type="matrix" values="1 0 0 0 0  0 1 0 0 0  0 0 1 0 0  0 0 0 1 0"/>
			</filter>
		</defs>
		<mask maskUnits="userSpaceOnUse" x="549.6" y="324.9" width="41.1" height="296.1" id="mask97_2_">
			<path class="st14" d="M557.3,316c-8.3,37.5-9.5,273.3-7.8,276c1.6,2.7,5.2,1.3,5.2,1.3s44-236.2,58.4-273.4
				C615.1,314.7,558.2,311.9,557.3,316z"/>
		</mask>
		<g class="st15">
			<path class="st2" d="M550.3,620.9c0.2,0.1,0.3,0.1,0.5,0c0.5-0.1,0.9-0.6,0.8-1.2c-0.7-4.1,4.9-62.7,13.1-129.5
				c9.9-81.3,19.3-141.2,25.9-164.2c0.1-0.5-0.2-1.1-0.7-1.2c-0.5-0.2-1.1,0.2-1.2,0.7c-9.4,32.8-21.3,126-26,164.5
				c-7.6,62.1-13.9,125.3-13.1,130.1C549.7,620.5,550,620.8,550.3,620.9z"/>
		</g>
		<path class="st12" d="M664.7,597.3c1.5,1.5,7.3,33.9,4.2,34.9c-3.6,1.1-13.2-27.6-13.5-31.6C654.9,595.3,662.1,594.7,664.7,597.3z
			"/>
		<path class="st2" d="M558.6,316c15.7,84.6,91.7,271.5,98.6,282.5c1.7,2.7,5.3,0.9,4.4-3.6c-9.4-43.7-37.3-206.6-44.6-284
			C616.4,305.2,557.6,310.5,558.6,316z"/>
		<defs>
			<filter id="Adobe_OpacityMaskFilter_1_" filterUnits="userSpaceOnUse" x="601.9" y="311.5" width="59.8" height="293">
				<feColorMatrix  type="matrix" values="1 0 0 0 0  0 1 0 0 0  0 0 1 0 0  0 0 0 1 0"/>
			</filter>
		</defs>
		<mask maskUnits="userSpaceOnUse" x="601.9" y="311.5" width="59.8" height="293" id="mask98_2_">
			<path class="st16" d="M558.6,316c15.7,84.6,91.7,271.5,98.6,282.5c1.7,2.7,5.3,0.9,4.4-3.6c-9.4-43.7-37.3-206.6-44.6-284
				C616.4,305.2,557.6,310.5,558.6,316z"/>
		</mask>
		<g class="st17">
			<path class="st18" d="M660.7,604.5c0.2,0,0.4,0,0.5-0.1c0.5-0.3,0.7-0.9,0.4-1.4c-2-3.6-15.5-61-29.3-126.8
				c-16.9-80.2-27.2-139.9-28.4-163.8c0-0.6-0.5-1-1-0.9c-0.6,0-1,0.5-1,1c1.7,34.1,20.4,126.1,28.4,164.1
				c12.9,61.2,27.2,123.1,29.6,127.3C660.1,604.3,660.4,604.5,660.7,604.5z"/>
		</g>
		<path class="st5" d="M428.2,99.2l-73,17.2c-2.4,0.6-3.9,3-3.3,5.4l3.3,14.2c0.6,2.4,3,3.9,5.4,3.3l73-17.2c2.4-0.6,3.9-3,3.3-5.4
			l-3.3-14.2C433,100.1,430.6,98.6,428.2,99.2z"/>
		<defs>
			<filter id="Adobe_OpacityMaskFilter_2_" filterUnits="userSpaceOnUse" x="351.8" y="111.5" width="91" height="31">
				<feColorMatrix  type="matrix" values="1 0 0 0 0  0 1 0 0 0  0 0 1 0 0  0 0 0 1 0"/>
			</filter>
		</defs>
		<mask maskUnits="userSpaceOnUse" x="351.8" y="111.5" width="91" height="31" id="mask99_2_">
			<path class="st19" d="M428.2,99.2l-73,17.2c-2.4,0.6-3.9,3-3.3,5.4l3.3,14.2c0.6,2.4,3,3.9,5.4,3.3l73-17.2
				c2.4-0.6,3.9-3,3.3-5.4l-3.3-14.2C433,100.1,430.6,98.6,428.2,99.2z"/>
		</mask>
		<g class="st20">
			<path class="st21" d="M439.8,111.5l-88,22l3,9l74-10l14-16L439.8,111.5z"/>
		</g>
		<path class="st22" d="M454.7,299.5c-2.1,0.3-31,3.5-29.8,6.5c1.1,3,5.9,7.5,10.4,7.8c4.4,0.3,23.8-8.4,23.3-10.4
			C458.1,301.4,456.8,299.3,454.7,299.5z"/>
		<path class="st23" d="M507.3,611.3l3.8-0.9L399.5,136.9l-3.8,0.9L507.3,611.3z"/>
		<path class="st22" d="M446.8,305.2c-4.2,0.5-14.5,0.6-15.5-1.2s12.2-5,14.5-2.8C448.1,303.5,451,304.7,446.8,305.2z"/>
		<path class="st24" d="M552.1,180.2c-15.6,55.6-72.1,109.9-97.4,119.4c-2.6,1-0.4,5.3,2.6,5.2c10-0.3,80.3-21.3,98.7-66.2
			C560.5,227.3,553.6,174.7,552.1,180.2z"/>
		<defs>
			<filter id="Adobe_OpacityMaskFilter_3_" filterUnits="userSpaceOnUse" x="452" y="208.6" width="106.8" height="101.8">
				<feColorMatrix  type="matrix" values="1 0 0 0 0  0 1 0 0 0  0 0 1 0 0  0 0 0 1 0"/>
			</filter>
		</defs>
		<mask maskUnits="userSpaceOnUse" x="452" y="208.6" width="106.8" height="101.8" id="mask100_2_">
			<path class="st25" d="M552.1,180.2c-15.6,55.6-72.1,109.9-97.4,119.4c-2.6,1-0.4,5.3,2.6,5.2c10-0.3,80.3-21.3,98.7-66.2
				C560.5,227.3,553.6,174.7,552.1,180.2z"/>
		</mask>
		<g class="st26">
			<path class="st27" d="M554.8,209.5c-23.9,66.4-86.3,90.4-102,94c-3.7,0.8,6,7,6,7l70-15l23-27l7-27
				C558.8,241.5,557.3,202.5,554.8,209.5z"/>
		</g>
		<path class="st28" d="M636.4,182.8c-11,34.4-18.8,117.8-18.1,133.2c0.1,3-41,10.2-58.4,1.3c-6.7-3.4-11.5-132.5-7.8-137.1
			s40.4-9.7,45.4-7.8C608.1,176.5,628.5,185.8,636.4,182.8z"/>
		<path class="st22" d="M593.6,146.4c0,0-11.6,2-13,0c-4.4-6.7,3.4-52.4,16.9-54.5c16.9-2.6,23.1,15.5,15.6,32.4
			c-8.5,19-14.9,37-3.9,53.2c-3.6,1.2-25.3,1.1-27.3-3.9C593.3,164,593.6,146.4,593.6,146.4z"/>
		<defs>
			<filter id="Adobe_OpacityMaskFilter_4_" filterUnits="userSpaceOnUse" x="578.8" y="104.5" width="29" height="15">
				<feColorMatrix  type="matrix" values="1 0 0 0 0  0 1 0 0 0  0 0 1 0 0  0 0 0 1 0"/>
			</filter>
		</defs>
		<mask maskUnits="userSpaceOnUse" x="578.8" y="104.5" width="29" height="15" id="mask101_2_">
			<path class="st29" d="M593.6,146.4c0,0-11.6,2-13,0c-4.4-6.7,3.4-52.4,16.9-54.5c16.9-2.6,23.1,15.5,15.6,32.4
				c-8.5,19-14.9,37-3.9,53.2c-3.6,1.2-25.3,1.1-27.3-3.9C593.3,164,593.6,146.4,593.6,146.4z"/>
		</mask>
		<g class="st30">
			<path class="st31" d="M582.8,111.5c1.8-0.4,21,7,21,7c2.5,5.3,4-13,4-13l-23-1l-6,4C578.8,108.5,581,111.9,582.8,111.5z"/>
		</g>
		<path class="st32" d="M628.7,95.9c0.7-1.5,6.3-9.2,7.7-7.8c1.5,1.4,5.8,9.1,3.9,11.7c-1.8,2.6-10.4,1.3-10.4,1.3
			S627.9,97.3,628.7,95.9z"/>
		<path class="st33" d="M624.8,95.9c2.3-0.9,5.9-1.7,6.4,1.3c0.6,3-1,5.2-3.8,5.2C624.5,102.4,622.4,96.8,624.8,95.9z"/>
		<path class="st32" d="M606.6,141.3c-0.7-0.8-1.3-20.1-1.3-20.1l-1.3-2.6c0,0,1.2-9.3,1.3-11c-4.3-0.1-17.2-9.4-15.6-14.3
			c2.2-6.5,28.5-8.6,35.1,3.9C635.4,117.2,613.7,136.8,606.6,141.3z"/>
		<path class="st22" d="M603.6,121.1c0.9-1.7,10.3-6.3,10.7-3.7c1.1,7.8-9.1,14.2-10.7,13.4C602.1,130,602.8,122.8,603.6,121.1z"/>
		<path class="st32" d="M604,132.2c-1.3,19.4-24.5,21.9-27.3,19.5c-2.7-2.5,0.9-22.7,2.6-23.4c1.7-0.6,8,2.8,9.1,3.9
			c1.2,1.1,1.3,3.9,1.3,3.9s8.6-1.3,14.3-18.2c0.5-1.5,2.7-1.4,2.7,0.3C606.7,121.2,604.1,130.4,604,132.2z"/>
		<path class="st22" d="M603.1,106c-5.1,2.2-17.2,5.1-20.5,3.7c-3.6-1.5-10.3-5.1-6.3-9.7c3.6-4.3,6.5-0.2,9.1,0.2
			c6,1.1,14.9-0.5,17.1,0.6S606.3,104.6,603.1,106z"/>
		<path class="st24" d="M626.1,223c114.3-49.2,29.3-130.6-24.7-121.9c-2.4,0.4-1.4,6.9,1.3,6.5c30.1-5.1,87.5,45.1,19.5,77.8
			C618.1,187.3,620.6,225.4,626.1,223z"/>
		<defs>
			<filter id="Adobe_OpacityMaskFilter_5_" filterUnits="userSpaceOnUse" x="598.9" y="103.4" width="92.9" height="129.1">
				<feColorMatrix  type="matrix" values="1 0 0 0 0  0 1 0 0 0  0 0 1 0 0  0 0 0 1 0"/>
			</filter>
		</defs>
		<mask maskUnits="userSpaceOnUse" x="598.9" y="103.4" width="92.9" height="129.1" id="mask102_2_">
			<path class="st34" d="M626.1,223c114.3-49.2,29.3-130.6-24.7-121.9c-2.4,0.4-1.4,6.9,1.3,6.5c30.1-5.1,87.5,45.1,19.5,77.8
				C618.1,187.3,620.6,225.4,626.1,223z"/>
		</mask>
		<g class="st35">
			<path class="st27" d="M600.8,111.5c0,0,52.1,43.9,53,41c11.6-36.5-37.7-53.7-54-48C597.2,105.4,600.8,111.5,600.8,111.5z
				 M691.8,166.5l-10,32l-34,31l-31,3l2-22c0,0,65-20,61-68C679.4,137.2,691.8,166.5,691.8,166.5z"/>
		</g>
	</g>
	<path class="st22" d="M722.6,135.3c-4.8,3.5-4.8,10.6,0,14.1c2.9,2.1,7,2.1,9.9,0c4.8-3.5,4.8-10.6,0-14.1
		C729.6,133.2,725.5,133.2,722.6,135.3z"/>
	
		<rect x="591.9" y="20.9" transform="matrix(-0.7071 0.7071 -0.7071 -0.7071 1044.6145 -374.848)" class="st28" width="16.1" height="16.1"/>
	<path class="st9" d="M672.6,69.7l-3.9,14.6L658,73.6L672.6,69.7 M676.5,65.8l-23.9,6.4l17.5,17.5L676.5,65.8L676.5,65.8z"/>
	<path class="st9" d="M528.1,61c3.5,0,6.3,2.8,6.3,6.3c0,3.5-2.8,6.3-6.3,6.3c-3.5,0-6.3-2.8-6.3-6.3C521.8,63.8,524.6,61,528.1,61
		 M528.1,59c-4.6,0-8.4,3.8-8.4,8.4s3.8,8.4,8.4,8.4s8.4-3.8,8.4-8.4S532.8,59,528.1,59L528.1,59z"/>
	<path class="st36" d="M735.3,68.3h9.8v9.8h-9.8V68.3 M733.5,66.5V80H747V66.5H733.5L733.5,66.5z"/>
	<path class="st37" d="M506.1,128.4l6.1,6.1l-6.1,6.1l-6.1-6.1L506.1,128.4 M506.1,125.7l-8.8,8.8l8.8,8.8l8.8-8.8L506.1,125.7
		L506.1,125.7z"/>
</g>
</svg>
